<svg xmlns="http://www.w3.org/2000/svg" width="600" height="400" viewBox="0 0 600 400"><rect width="100%" height="100%" fill="#DDDDDD"/><path fill="#999999" d="M187.975 168.23h10.33q2.85 0 4.79-.68 1.94-.69 3.1-1.83 1.16-1.14 1.67-2.66.51-1.52.51-3.23 0-1.78-.57-3.21-.57-1.42-1.78-2.43-1.22-1.01-3.14-1.54-1.92-.53-4.61-.53h-10.3v16.11Zm8.7-39.06h-8.7v15.88h8.13q5.24 0 7.92-1.9 2.68-1.9 2.68-6.04 0-4.3-2.43-6.12-2.43-1.82-7.6-1.82Zm-18.92-7.91h18.92q5.4 0 9.23 1.03 3.84 1.02 6.29 2.92t3.59 4.6q1.14 2.7 1.14 6.08 0 1.94-.57 3.71-.57 1.76-1.76 3.3-1.2 1.54-3.04 2.8-1.85 1.25-4.39 2.12 11.32 2.55 11.32 12.24 0 3.5-1.33 6.46t-3.87 5.11q-2.55 2.15-6.27 3.36-3.73 1.22-8.52 1.22h-20.74v-54.95Zm48.86 15.96h9.43v38.99h-9.43v-38.99Zm10.72-11.36q0 1.22-.49 2.28-.5 1.06-1.31 1.86-.82.8-1.92 1.27-1.11.48-2.36.48-1.22 0-2.3-.48-1.08-.47-1.88-1.27-.8-.8-1.27-1.86-.48-1.06-.48-2.28 0-1.25.48-2.36.47-1.1 1.27-1.9.8-.79 1.88-1.27 1.08-.47 2.3-.47 1.25 0 2.36.47 1.1.48 1.92 1.27.81.8 1.31 1.9.49 1.11.49 2.36Zm15.69 26.37h17.71q0-1.82-.51-3.44-.51-1.61-1.54-2.83-1.03-1.21-2.6-1.92-1.58-.7-3.67-.7-4.07 0-6.4 2.32-2.34 2.32-2.99 6.57Zm23.94 5.66h-24.13q.23 3.01 1.07 5.19.83 2.19 2.2 3.61 1.37 1.43 3.25 2.13t4.16.7q2.28 0 3.94-.53 1.65-.53 2.88-1.18 1.24-.64 2.17-1.18.93-.53 1.8-.53 1.18 0 1.75.88l2.7 3.42q-1.56 1.82-3.5 3.06-1.93 1.23-4.04 1.97-2.11.74-4.3 1.05-2.18.3-4.23.3-4.07 0-7.57-1.35-3.49-1.35-6.08-3.99-2.58-2.64-4.06-6.53-1.48-3.9-1.48-9.03 0-3.99 1.29-7.51 1.29-3.51 3.7-6.11 2.42-2.61 5.89-4.13 3.48-1.52 7.85-1.52 3.69 0 6.8 1.18 3.12 1.18 5.36 3.44t3.52 5.55q1.27 3.29 1.27 7.5 0 2.13-.46 2.87-.45.74-1.75.74Zm17.37-18.96.65 3.08q1.17-1.18 2.49-2.18 1.31-1.01 2.77-1.71 1.46-.71 3.13-1.11 1.68-.4 3.65-.4 3.19 0 5.66 1.09 2.47 1.08 4.13 3.04 1.65 1.95 2.51 4.67.85 2.72.85 5.99v24.81h-9.39V151.4q0-3.58-1.63-5.53-1.63-1.96-4.98-1.96-2.43 0-4.56 1.1-2.13 1.1-4.03 3v28.2h-9.38v-38.99h5.74q1.82 0 2.39 1.71Zm47.73 37.89q-5.09 0-7.81-2.87-2.72-2.87-2.72-7.92v-21.78h-3.99q-.76 0-1.29-.49-.53-.5-.53-1.48v-3.73l6.27-1.02 1.97-10.64q.19-.76.73-1.18.53-.42 1.36-.42h4.87v12.27h10.41v6.69h-10.41v21.13q0 1.82.89 2.85t2.45 1.03q.88 0 1.47-.21.58-.21 1.02-.44.44-.23.78-.44t.68-.21q.42 0 .69.21.26.21.57.63l2.81 4.56q-2.05 1.71-4.71 2.58-2.66.88-5.51.88Zm32.53-40.21q4.33 0 7.88 1.41t6.08 3.99q2.53 2.58 3.9 6.31 1.36 3.72 1.36 8.32 0 4.64-1.36 8.36-1.37 3.72-3.9 6.35-2.53 2.62-6.08 4.02-3.55 1.41-7.88 1.41-4.37 0-7.95-1.41-3.57-1.4-6.09-4.02-2.53-2.63-3.92-6.35-1.39-3.72-1.39-8.36 0-4.6 1.39-8.32 1.39-3.73 3.92-6.31 2.52-2.58 6.09-3.99 3.58-1.41 7.95-1.41Zm0 32.95q4.86 0 7.2-3.27 2.33-3.27 2.33-9.57 0-6.31-2.33-9.62-2.34-3.3-7.2-3.3-4.94 0-7.32 3.32-2.37 3.33-2.37 9.6t2.37 9.55q2.38 3.29 7.32 3.29Zm39.4 7.26q-5.09 0-7.81-2.87-2.71-2.87-2.71-7.92v-21.78h-3.99q-.76 0-1.3-.49-.53-.5-.53-1.48v-3.73l6.27-1.02 1.98-10.64q.19-.76.72-1.18.53-.42 1.37-.42h4.86v12.27h10.41v6.69h-10.41v21.13q0 1.82.9 2.85.89 1.03 2.45 1.03.87 0 1.46-.21t1.03-.44q.43-.23.77-.44.35-.21.69-.21.42 0 .68.21.27.21.57.63l2.81 4.56q-2.05 1.71-4.71 2.58-2.66.88-5.51.88Zm-242 63.12q0 6.04-2.02 11.09-2.01 5.06-5.66 8.7-3.65 3.65-8.78 5.67-5.13 2.01-11.4 2.01h-20.93v-54.95h20.93q6.27 0 11.4 2.04 5.13 2.03 8.78 5.66 3.65 3.63 5.66 8.68 2.02 5.05 2.02 11.1Zm-10.49 0q0-4.53-1.2-8.12-1.19-3.59-3.45-6.08-2.27-2.49-5.48-3.82-3.21-1.33-7.24-1.33h-10.67v38.69h10.67q4.03 0 7.24-1.33t5.48-3.82q2.26-2.49 3.45-6.08 1.2-3.59 1.2-8.11Zm18.32-11.52h9.42v38.99h-9.42v-38.99Zm10.71-11.36q0 1.22-.49 2.28-.5 1.06-1.31 1.86-.82.8-1.92 1.28-1.1.47-2.36.47-1.21 0-2.3-.47-1.08-.48-1.88-1.28-.8-.8-1.27-1.86-.48-1.06-.48-2.28 0-1.25.48-2.36.47-1.1 1.27-1.9.8-.79 1.88-1.27 1.09-.47 2.3-.47 1.26 0 2.36.47 1.1.48 1.92 1.27.81.8 1.31 1.9.49 1.11.49 2.36Zm34.2 15.58-2.13 3.38q-.38.61-.79.86-.42.24-1.07.24-.68 0-1.46-.38-.78-.38-1.81-.85-1.02-.48-2.33-.86t-3.1-.38q-2.77 0-4.35 1.18-1.58 1.18-1.58 3.08 0 1.25.82 2.11.82.85 2.17 1.5 1.34.65 3.05 1.16 1.71.51 3.48 1.12 1.77.61 3.48 1.39 1.71.78 3.06 1.97 1.35 1.2 2.16 2.87.82 1.67.82 4.03 0 2.81-1.01 5.19-1 2.37-2.98 4.1-1.98 1.73-4.88 2.7-2.91.97-6.71.97-2.01 0-3.93-.36-1.92-.36-3.69-1.01t-3.27-1.52q-1.5-.87-2.64-1.9l2.17-3.57q.42-.65.99-.99.57-.34 1.44-.34t1.65.49q.78.5 1.81 1.07 1.02.57 2.41 1.06 1.39.49 3.52.49 1.67 0 2.87-.39 1.19-.4 1.97-1.05t1.14-1.5q.36-.86.36-1.77 0-1.37-.81-2.24-.82-.87-2.17-1.52t-3.08-1.16q-1.73-.51-3.53-1.12-1.81-.61-3.54-1.42-1.73-.82-3.07-2.08-1.35-1.25-2.17-3.07-.82-1.83-.82-4.41 0-2.4.95-4.56.95-2.17 2.8-3.78 1.84-1.62 4.59-2.59 2.76-.97 6.37-.97 4.03 0 7.33 1.33 3.31 1.33 5.51 3.5Zm16.87 7.18v17.48q1.6 1.94 3.48 2.74 1.88.8 4.09.8 2.12 0 3.83-.8t2.91-2.43q1.2-1.64 1.84-4.13.65-2.49.65-5.87 0-3.42-.55-5.79-.55-2.38-1.58-3.86-1.02-1.48-2.49-2.17-1.46-.68-3.32-.68-2.93 0-4.98 1.24-2.05 1.23-3.88 3.47Zm-1.25-9.69.76 3.61q2.39-2.7 5.43-4.37 3.04-1.67 7.15-1.67 3.19 0 5.83 1.33t4.56 3.86q1.92 2.52 2.97 6.23 1.04 3.7 1.04 8.49 0 4.37-1.18 8.1-1.18 3.72-3.36 6.46-2.19 2.73-5.28 4.27-3.1 1.54-6.94 1.54-3.27 0-5.58-1.01-2.32-1-4.15-2.79v15.96h-9.38v-51.72h5.74q1.82 0 2.39 1.71Zm52.29-2.32q4.33 0 7.88 1.41 3.56 1.41 6.08 3.99 2.53 2.58 3.9 6.31 1.37 3.72 1.37 8.32 0 4.64-1.37 8.36-1.37 3.72-3.9 6.35-2.52 2.62-6.08 4.02-3.55 1.41-7.88 1.41-4.37 0-7.94-1.41-3.58-1.4-6.1-4.02-2.53-2.63-3.92-6.35-1.38-3.72-1.38-8.36 0-4.6 1.38-8.32 1.39-3.73 3.92-6.31 2.52-2.58 6.1-3.99 3.57-1.41 7.94-1.41Zm0 32.95q4.86 0 7.2-3.27t2.34-9.57q0-6.31-2.34-9.62-2.34-3.3-7.2-3.3-4.94 0-7.32 3.32-2.37 3.33-2.37 9.6t2.37 9.55q2.38 3.29 7.32 3.29Zm34.54-30.63.65 3.08q1.17-1.18 2.49-2.18 1.31-1.01 2.77-1.71 1.46-.71 3.13-1.11 1.68-.4 3.65-.4 3.19 0 5.66 1.09 2.47 1.08 4.13 3.04 1.65 1.95 2.51 4.67.85 2.72.85 5.99v24.81h-9.39V242.6q0-3.58-1.63-5.53-1.63-1.96-4.98-1.96-2.43 0-4.56 1.1-2.13 1.1-4.03 3v28.2h-9.38v-38.99h5.74q1.82 0 2.39 1.71Zm35.04-1.71h9.42v38.99h-9.42v-38.99Zm10.71-11.36q0 1.22-.49 2.28-.5 1.06-1.31 1.86-.82.8-1.92 1.28-1.1.47-2.36.47-1.21 0-2.3-.47-1.08-.48-1.88-1.28-.8-.8-1.27-1.86-.48-1.06-.48-2.28 0-1.25.48-2.36.47-1.1 1.27-1.9.8-.79 1.88-1.27 1.09-.47 2.3-.47 1.26 0 2.36.47 1.1.48 1.92 1.27.81.8 1.31 1.9.49 1.11.49 2.36Zm17.67 22.76v17.48q1.6 1.94 3.48 2.74 1.88.8 3.97.8 2.17 0 3.9-.78 1.72-.78 2.94-2.43 1.22-1.66 1.86-4.22.65-2.57.65-6.14 0-6.42-2.13-9.29-2.13-2.87-6.12-2.87-2.7 0-4.71 1.24-2.01 1.23-3.84 3.47Zm0-28.88v22.27q2.36-2.47 5.23-3.93 2.87-1.47 6.55-1.47 3.38 0 6.1 1.33 2.72 1.33 4.64 3.82 1.92 2.49 2.94 6.03 1.03 3.53 1.03 7.94 0 4.75-1.18 8.62-1.18 3.88-3.36 6.64-2.19 2.75-5.27 4.27-3.07 1.52-6.84 1.52-1.82 0-3.3-.36-1.48-.36-2.74-1.01-1.25-.64-2.3-1.57-1.04-.94-1.99-2.08l-.42 2.63q-.23.98-.78 1.4-.55.42-1.5.42h-6.19v-56.47h9.38Zm33.86 0h9.39v56.47h-9.39v-56.47Zm26.18 32.49h17.71q0-1.82-.51-3.44-.52-1.61-1.54-2.83-1.03-1.21-2.6-1.92-1.58-.7-3.67-.7-4.07 0-6.4 2.32-2.34 2.32-2.99 6.57Zm23.94 5.66h-24.13q.23 3.01 1.07 5.19.83 2.19 2.2 3.61 1.37 1.43 3.25 2.13t4.16.7q2.28 0 3.93-.53 1.66-.53 2.89-1.18 1.24-.64 2.17-1.18.93-.53 1.8-.53 1.18 0 1.75.88l2.7 3.42q-1.56 1.82-3.5 3.06-1.94 1.23-4.04 1.97-2.11.74-4.3 1.05-2.18.3-4.24.3-4.06 0-7.56-1.35-3.49-1.35-6.08-3.99-2.58-2.64-4.06-6.53-1.49-3.9-1.49-9.03 0-3.99 1.3-7.5 1.29-3.52 3.7-6.12 2.41-2.61 5.89-4.13 3.48-1.52 7.85-1.52 3.68 0 6.8 1.18 3.12 1.18 5.36 3.44t3.51 5.55q1.28 3.29 1.28 7.5 0 2.13-.46 2.87-.46.74-1.75.74Z"/></svg>